<?xml version="1.0" standalone="no"?>
<!DOCTYPE svg PUBLIC "-//W3C//DTD SVG 20010904//EN"
 "http://www.w3.org/TR/2001/REC-SVG-20010904/DTD/svg10.dtd">
<svg version="1.0" xmlns="http://www.w3.org/2000/svg"
 width="919.000000pt" height="919.000000pt" viewBox="0 0 919.000000 919.000000"
 preserveAspectRatio="xMidYMid meet">
<metadata>
Created by potrace 1.14, written by Peter Selinger 2001-2017
</metadata>
<g transform="translate(0.000000,919.000000) scale(0.100000,-0.100000)"
fill="#000000" stroke="none">
<path d="M2620 7245 c0 -3 95 -229 211 -502 185 -435 273 -644 274 -650 0 -1
63 -15 140 -33 77 -17 219 -49 315 -70 96 -22 247 -56 335 -75 88 -20 169 -38
180 -41 11 -2 31 -6 46 -9 14 -2 86 -19 160 -36 73 -17 145 -33 159 -35 52
-10 347 -76 401 -89 112 -30 107 -25 -211 189 -113 75 -380 256 -595 401 -214
145 -502 339 -640 432 -137 92 -348 236 -470 318 -277 188 -305 206 -305 200z"/>
<path d="M7020 6721 c-8 -5 -134 -55 -280 -111 -145 -56 -266 -103 -268 -105
-3 -2 108 -155 244 -340 137 -185 283 -383 324 -439 41 -56 87 -116 101 -134
l25 -33 49 128 c81 215 86 226 104 278 43 119 162 432 171 447 23 41 36 31
-306 246 -115 71 -135 79 -164 63z"/>
<path d="M145 6520 c49 -34 99 -67 109 -72 11 -6 25 -15 30 -20 10 -8 407
-271 1556 -1033 444 -294 1751 -1162 1946 -1291 127 -85 174 -108 174 -86 0 4
15 23 33 42 18 19 136 152 262 295 127 143 244 276 261 295 17 19 75 85 129
145 54 61 114 128 134 150 143 157 432 487 429 490 -1 1 -37 10 -78 20 -41 9
-82 18 -90 20 -8 2 -130 29 -270 60 -140 32 -293 66 -340 76 -47 11 -94 21
-105 23 -59 12 -177 38 -225 50 -30 7 -82 19 -115 26 -33 7 -85 19 -115 26
-30 7 -66 15 -80 18 -27 4 -29 5 -160 35 -47 11 -101 23 -120 26 -19 3 -43 8
-52 11 -9 3 -25 6 -35 9 -10 2 -68 15 -129 29 -61 14 -128 28 -150 32 -21 3
-41 7 -44 9 -3 2 -59 15 -125 29 -66 15 -140 31 -165 37 -25 6 -54 13 -65 15
-29 6 -29 6 -425 94 -201 45 -374 83 -385 86 -11 2 -51 11 -90 19 -126 29
-200 45 -220 50 -11 2 -49 10 -85 18 -36 8 -109 25 -164 37 -54 12 -106 23
-115 25 -33 8 -158 35 -221 49 -36 8 -148 33 -250 56 -102 23 -194 44 -205 46
-11 2 -29 6 -40 8 -76 18 -169 38 -290 64 -77 17 -153 33 -170 37 -21 5 -4
-11 60 -55z"/>
<path d="M6254 6334 c-32 -37 -77 -88 -99 -112 -22 -25 -47 -53 -55 -62 -8 -9
-44 -50 -80 -90 -36 -40 -72 -81 -80 -90 -33 -38 -146 -165 -168 -189 -13 -14
-47 -53 -75 -85 -29 -33 -66 -76 -84 -95 -18 -19 -31 -37 -29 -39 2 -2 35 -5
72 -8 38 -2 96 -6 129 -9 33 -2 101 -7 150 -10 50 -3 113 -7 140 -10 28 -2 95
-7 150 -10 55 -3 127 -8 160 -10 33 -3 98 -7 145 -10 47 -3 108 -7 135 -10 28
-2 115 -7 194 -11 l144 -7 -63 84 c-35 46 -78 104 -96 129 -19 25 -37 50 -41
55 -5 6 -111 150 -237 320 -126 171 -234 316 -241 323 -9 10 -24 -1 -71 -54z"/>
<path d="M7662 6363 c-5 -16 -23 -64 -40 -108 -16 -44 -32 -88 -35 -97 -7 -20
-71 -19 748 -19 704 0 789 1 784 5 -2 2 -24 7 -49 10 -25 3 -54 8 -65 10 -11
2 -40 7 -65 11 -25 4 -54 9 -65 11 -16 3 -151 26 -284 49 -48 8 -206 35 -231
40 -14 2 -68 11 -120 20 -52 8 -105 17 -116 19 -12 2 -37 7 -55 10 -19 3 -113
19 -209 36 -96 16 -178 30 -181 30 -4 0 -11 -12 -17 -27z"/>
<path d="M5453 5387 c-5 -6 -49 -145 -97 -307 -48 -162 -91 -306 -96 -320 -10
-25 -204 -673 -265 -880 -7 -25 -34 -115 -60 -200 -26 -85 -49 -162 -51 -170
-2 -8 -31 -105 -64 -215 -96 -317 -110 -363 -147 -485 -19 -63 -48 -160 -64
-215 -17 -55 -33 -109 -35 -120 l-5 -20 16 20 c8 11 28 34 43 50 15 17 79 91
142 165 127 149 160 187 175 204 6 6 49 56 95 111 47 55 87 102 90 105 3 3
183 212 400 465 217 253 397 462 400 465 3 3 59 68 125 145 65 77 122 142 125
145 3 3 41 48 85 100 69 82 99 117 150 174 6 6 37 43 70 81 33 39 64 75 70 81
5 6 30 35 55 64 25 29 50 58 55 64 6 6 35 40 65 76 30 35 65 76 77 90 12 14
31 36 43 50 12 14 38 45 58 69 21 24 49 58 64 75 15 17 25 32 23 34 -4 4 -24
6 -190 17 -49 3 -115 8 -145 10 -30 2 -98 6 -150 10 -52 3 -120 8 -150 10 -30
3 -93 7 -140 10 -47 3 -116 7 -155 10 -38 2 -110 7 -160 10 -49 3 -110 8 -135
10 -25 2 -101 7 -170 11 -69 3 -128 8 -131 10 -4 2 -11 -2 -16 -9z"/>
<path d="M5154 5099 c-7 -14 -65 -79 -169 -195 -11 -12 -49 -55 -85 -95 -36
-40 -87 -98 -115 -129 -27 -31 -80 -90 -116 -131 -153 -173 -256 -289 -319
-359 -245 -274 -290 -327 -290 -343 0 -9 27 -137 59 -285 33 -147 62 -278 64
-292 3 -14 19 -86 36 -160 34 -151 137 -625 143 -654 3 -17 4 -17 15 5 10 21
93 292 129 419 11 42 83 282 380 1265 63 209 117 387 119 395 2 8 40 136 85
284 73 241 92 322 64 275z"/>
<path d="M6818 4797 c-48 -56 -102 -120 -121 -142 -20 -22 -81 -93 -137 -159
-56 -65 -107 -124 -113 -131 -7 -7 -32 -36 -57 -66 -25 -29 -92 -107 -148
-174 -57 -66 -113 -131 -125 -145 -37 -44 -201 -234 -228 -265 -15 -16 -68
-79 -120 -140 -51 -60 -96 -112 -99 -115 -3 -3 -84 -97 -181 -210 -96 -113
-316 -369 -488 -568 -172 -200 -310 -366 -307 -369 2 -3 11 -1 18 3 7 5 18 9
23 11 9 2 280 115 1098 460 l329 138 140 365 c76 201 141 370 142 375 2 6 6
17 9 25 18 44 349 907 352 920 3 8 27 75 55 149 28 73 50 135 48 136 -2 2 -42
-42 -90 -98z"/>
<path d="M3590 3234 c-475 -96 -663 -134 -685 -138 -11 -2 -200 -41 -420 -86
-220 -45 -413 -84 -430 -86 -16 -3 -37 -7 -45 -10 -8 -3 -33 -8 -55 -11 -22
-3 -41 -6 -43 -8 -1 -1 62 -32 140 -68 79 -36 175 -80 213 -97 39 -18 198 -91
355 -162 157 -71 308 -140 335 -153 28 -13 127 -58 220 -100 94 -42 207 -95
253 -116 46 -21 85 -39 87 -39 2 0 41 -18 87 -39 46 -22 148 -69 227 -105
l143 -66 -6 173 c-4 94 -9 219 -11 277 -12 270 -15 335 -21 475 -3 83 -7 182
-9 220 -2 39 -4 100 -4 136 -1 46 -5 66 -13 65 -7 0 -150 -28 -318 -62z"/>
</g>
</svg>
